# xmcd CD database file
#
# Track frame offsets:
#	150
#	17124
#	37687
#	57681
#	74934
#	101895
#	136545
#	165049
#	204740
#	233273
#	241797
#	265250
#	295675
#	318213
#
# Disc length: 4536 seconds
#
# Revision: 0
# Processed by: cddbd v1.5.2PL0 Copyright (c) Steve Scherf et al.
# Submitted via: CDex 1.51
#
DISCID=b811b60e
DTITLE=V/A - Jazz For More Maximo
DYEAR=2007
DGENRE=Jazz
TTITLE0=The Lack Of Afro - The Outsider
TTITLE1=Breakout - Planet Rock
TTITLE2=The Baker Boys - It Don't Mean A Things
TTITLE3=The Mighty Show-Stoppers - Hippy Skippy Moon Strut
TTITLE4=Scat Firework - Se Vose Pensa
TTITLE5=Nick Holder - Summer Daze (Original Mix)
TTITLE6=Luisito Quintero - Aquilas Coisas Todas (Louie Vega EOL Remix)
TTITLE7=Laurentius - Karate Samba (Main Mix)
TTITLE8=The Baker Boys - Moment's Notice
TTITLE9=Tenorio Jr. - Nebulosa
TTITLE10=Native - Prussian Blue (Nicola Conte Jazz Dancer Rework)
TTITLE11=Shirley Eubanks Ensamble - The Blessing Song
TTITLE12=Beatfanatic - Electromagnetic Colours
TTITLE13=The Juju Orchestra - What is Hip ? - feat. Carolyn Leonhart and Terry Callier
EXTD=YEAR: 2007
EXTT0=
EXTT1=
EXTT2=
EXTT3=
EXTT4=
EXTT5=
EXTT6=
EXTT7=
EXTT8=
EXTT9=
EXTT10=
EXTT11=
EXTT12=
EXTT13=
PLAYORDER=
